<svg width="56" height="57" viewBox="0 0 56 57" fill="none" xmlns="http://www.w3.org/2000/svg">
    <rect y="0.557617" width="56" height="56" rx="28" fill="#ACCE22"/>
    <path d="M35.476 19.4016C35.1437 19.4016 34.8189 19.5001 34.5426 19.6847C34.2664 19.8693 34.051 20.1317 33.9239 20.4387C33.7967 20.7457 33.7635 21.0835 33.8283 21.4094C33.8931 21.7353 34.0531 22.0346 34.2881 22.2696C34.523 22.5045 34.8224 22.6645 35.1482 22.7293C35.4741 22.7942 35.8119 22.7609 36.1189 22.6337C36.4259 22.5066 36.6883 22.2912 36.8729 22.015C37.0575 21.7387 37.156 21.4139 37.156 21.0816C37.156 20.6361 36.979 20.2087 36.6639 19.8937C36.3489 19.5786 35.9216 19.4016 35.476 19.4016ZM41.916 22.7896C41.8888 21.628 41.6712 20.4788 41.272 19.3876C40.916 18.454 40.362 17.6086 39.648 16.9096C38.9548 16.192 38.1074 15.6415 37.17 15.2996C36.0817 14.8882 34.9312 14.6657 33.768 14.6416C32.284 14.5576 31.808 14.5576 28 14.5576C24.192 14.5576 23.716 14.5576 22.232 14.6416C21.0688 14.6657 19.9183 14.8882 18.83 15.2996C17.8943 15.6449 17.0477 16.195 16.352 16.9096C15.6344 17.6029 15.0838 18.4502 14.742 19.3876C14.3306 20.4759 14.1081 21.6264 14.084 22.7896C14 24.2736 14 24.7496 14 28.5576C14 32.3656 14 32.8416 14.084 34.3256C14.1081 35.4888 14.3306 36.6393 14.742 37.7276C15.0838 38.665 15.6344 39.5124 16.352 40.2056C17.0477 40.9202 17.8943 41.4703 18.83 41.8156C19.9183 42.227 21.0688 42.4495 22.232 42.4736C23.716 42.5576 24.192 42.5576 28 42.5576C31.808 42.5576 32.284 42.5576 33.768 42.4736C34.9312 42.4495 36.0817 42.227 37.17 41.8156C38.1074 41.4738 38.9548 40.9232 39.648 40.2056C40.3651 39.5092 40.9197 38.6631 41.272 37.7276C41.6712 36.6365 41.8888 35.4872 41.916 34.3256C41.916 32.8416 42 32.3656 42 28.5576C42 24.7496 42 24.2736 41.916 22.7896ZM39.396 34.1576C39.3858 35.0463 39.2249 35.9268 38.92 36.7616C38.6965 37.3709 38.3374 37.9214 37.87 38.3716C37.4159 38.8343 36.8665 39.1926 36.26 39.4216C35.4252 39.7265 34.5447 39.8874 33.656 39.8976C32.256 39.9676 31.738 39.9816 28.056 39.9816C24.374 39.9816 23.856 39.9816 22.456 39.8976C21.5332 39.9149 20.6144 39.7728 19.74 39.4776C19.1601 39.2369 18.6359 38.8795 18.2 38.4276C17.7353 37.9779 17.3808 37.4269 17.164 36.8176C16.8222 35.9708 16.6326 35.0703 16.604 34.1576C16.604 32.7576 16.52 32.2396 16.52 28.5576C16.52 24.8756 16.52 24.3576 16.604 22.9576C16.6103 22.0491 16.7761 21.1487 17.094 20.2976C17.3405 19.7067 17.7188 19.1799 18.2 18.7576C18.6253 18.2763 19.151 17.894 19.74 17.6376C20.5934 17.3297 21.4928 17.1687 22.4 17.1616C23.8 17.1616 24.318 17.0776 28 17.0776C31.682 17.0776 32.2 17.0776 33.6 17.1616C34.4887 17.1718 35.3692 17.3328 36.204 17.6376C36.8402 17.8737 37.4112 18.2576 37.87 18.7576C38.3288 19.1877 38.6873 19.7134 38.92 20.2976C39.2312 21.1501 39.3922 22.0501 39.396 22.9576C39.466 24.3576 39.48 24.8756 39.48 28.5576C39.48 32.2396 39.466 32.7576 39.396 34.1576ZM28 21.3756C26.5801 21.3784 25.1929 21.802 24.0137 22.5928C22.8345 23.3837 21.9161 24.5063 21.3747 25.8189C20.8332 27.1315 20.693 28.5751 20.9717 29.9673C21.2504 31.3596 21.9355 32.638 22.9405 33.641C23.9455 34.644 25.2252 35.3266 26.618 35.6026C28.0108 35.8786 29.4541 35.7356 30.7657 35.1916C32.0772 34.6476 33.198 33.727 33.9866 32.5463C34.7751 31.3655 35.196 29.9775 35.196 28.5576C35.1979 27.6128 35.0129 26.6769 34.6517 25.8038C34.2906 24.9306 33.7604 24.1376 33.0916 23.4701C32.4229 22.8026 31.6287 22.274 30.7549 21.9145C29.8811 21.5551 28.9448 21.3719 28 21.3756ZM28 33.2196C27.0779 33.2196 26.1766 32.9462 25.4099 32.4339C24.6433 31.9217 24.0457 31.1936 23.6929 30.3417C23.34 29.4898 23.2477 28.5524 23.4276 27.6481C23.6075 26.7438 24.0515 25.9131 24.7035 25.2611C25.3555 24.6091 26.1861 24.1651 27.0905 23.9852C27.9948 23.8053 28.9322 23.8976 29.7841 24.2505C30.6359 24.6033 31.364 25.2009 31.8763 25.9675C32.3886 26.7342 32.662 27.6356 32.662 28.5576C32.662 29.1698 32.5414 29.7761 32.3071 30.3417C32.0728 30.9073 31.7294 31.4212 31.2965 31.8541C30.8636 32.2871 30.3497 32.6305 29.7841 32.8647C29.2184 33.099 28.6122 33.2196 28 33.2196Z" fill="white"/>
    </svg>
    